<svg xmlns="http://www.w3.org/2000/svg" width="540" height="1080" viewBox="0 0 540 1080" role="img">
  <defs>
    <filter id="shadow" x="-20%" y="-20%" width="140%" height="140%"><feDropShadow dx="0" dy="18" stdDeviation="24" flood-color="#000000" flood-opacity="0.18"/></filter>
  </defs>
  
    <rect x="0" y="0" width="540" height="1080" rx="0" fill="#dcd5c9" stroke-width="1"/>
    <rect x="32" y="20" width="476" height="1040" rx="48" fill="#101820" stroke-width="1"/>
    <rect x="50" y="46" width="440" height="988" rx="34" fill="#f7f2e8" stroke-width="1"/>
    <rect x="206" y="34" width="128" height="22" rx="11" fill="#101820" stroke-width="1"/>
    <g transform="translate(50 46)"><rect x="0" y="0" width="440" height="988" rx="34" fill="#f6f1e7" stroke-width="1"/><text x="28" y="58" fill="#25313d" font-size="26" font-weight="800" font-family="Inter, ui-sans-serif, system-ui, -apple-system, BlinkMacSystemFont, 'Segoe UI', sans-serif">Library</text><rect x="28" y="86" width="384" height="44" rx="22" fill="#fffaf2" stroke="#dfd4c5" stroke-width="1"/><text x="52" y="114" fill="#8a8177" font-size="13" font-weight="600" font-family="Inter, ui-sans-serif, system-ui, -apple-system, BlinkMacSystemFont, 'Segoe UI', sans-serif">Search Calibre library</text><rect x="34" y="166" width="92" height="138" rx="10" fill="#6c5ce7" stroke-width="1"/><rect x="46" y="182" width="68" height="10" rx="4" fill="#fff" stroke-width="1" opacity="0.35"/><rect x="46" y="278" width="44" height="8" rx="4" fill="#fff" stroke-width="1" opacity="0.28"/><text x="34" y="332" fill="#25313d" font-size="13" font-weight="800" font-family="Inter, ui-sans-serif, system-ui, -apple-system, BlinkMacSystemFont, 'Segoe UI', sans-serif">Empire</text><text x="34" y="354" fill="#766b5d" font-size="11" font-weight="600" font-family="Inter, ui-sans-serif, system-ui, -apple-system, BlinkMacSystemFont, 'Segoe UI', sans-serif">Downloaded</text><rect x="162" y="166" width="92" height="138" rx="10" fill="#e17055" stroke-width="1"/><rect x="174" y="182" width="68" height="10" rx="4" fill="#fff" stroke-width="1" opacity="0.35"/><rect x="174" y="278" width="44" height="8" rx="4" fill="#fff" stroke-width="1" opacity="0.28"/><text x="162" y="332" fill="#25313d" font-size="13" font-weight="800" font-family="Inter, ui-sans-serif, system-ui, -apple-system, BlinkMacSystemFont, 'Segoe UI', sans-serif">Dispossessed</text><text x="162" y="354" fill="#766b5d" font-size="11" font-weight="600" font-family="Inter, ui-sans-serif, system-ui, -apple-system, BlinkMacSystemFont, 'Segoe UI', sans-serif">In library</text><rect x="290" y="166" width="92" height="138" rx="10" fill="#00b894" stroke-width="1"/><rect x="302" y="182" width="68" height="10" rx="4" fill="#fff" stroke-width="1" opacity="0.35"/><rect x="302" y="278" width="44" height="8" rx="4" fill="#fff" stroke-width="1" opacity="0.28"/><text x="290" y="332" fill="#25313d" font-size="13" font-weight="800" font-family="Inter, ui-sans-serif, system-ui, -apple-system, BlinkMacSystemFont, 'Segoe UI', sans-serif">Network</text><text x="290" y="354" fill="#766b5d" font-size="11" font-weight="600" font-family="Inter, ui-sans-serif, system-ui, -apple-system, BlinkMacSystemFont, 'Segoe UI', sans-serif">Downloaded</text><rect x="34" y="386" width="92" height="138" rx="10" fill="#f4b942" stroke-width="1"/><rect x="46" y="402" width="68" height="10" rx="4" fill="#fff" stroke-width="1" opacity="0.35"/><rect x="46" y="498" width="44" height="8" rx="4" fill="#fff" stroke-width="1" opacity="0.28"/><text x="34" y="552" fill="#25313d" font-size="13" font-weight="800" font-family="Inter, ui-sans-serif, system-ui, -apple-system, BlinkMacSystemFont, 'Segoe UI', sans-serif">Wild-Built</text><text x="34" y="574" fill="#766b5d" font-size="11" font-weight="600" font-family="Inter, ui-sans-serif, system-ui, -apple-system, BlinkMacSystemFont, 'Segoe UI', sans-serif">Downloaded</text><rect x="162" y="386" width="92" height="138" rx="10" fill="#0984e3" stroke-width="1"/><rect x="174" y="402" width="68" height="10" rx="4" fill="#fff" stroke-width="1" opacity="0.35"/><rect x="174" y="498" width="44" height="8" rx="4" fill="#fff" stroke-width="1" opacity="0.28"/><text x="162" y="552" fill="#25313d" font-size="13" font-weight="800" font-family="Inter, ui-sans-serif, system-ui, -apple-system, BlinkMacSystemFont, 'Segoe UI', sans-serif">Murderbot</text><text x="162" y="574" fill="#766b5d" font-size="11" font-weight="600" font-family="Inter, ui-sans-serif, system-ui, -apple-system, BlinkMacSystemFont, 'Segoe UI', sans-serif">In library</text><rect x="290" y="386" width="92" height="138" rx="10" fill="#a29bfe" stroke-width="1"/><rect x="302" y="402" width="68" height="10" rx="4" fill="#fff" stroke-width="1" opacity="0.35"/><rect x="302" y="498" width="44" height="8" rx="4" fill="#fff" stroke-width="1" opacity="0.28"/><text x="290" y="552" fill="#25313d" font-size="13" font-weight="800" font-family="Inter, ui-sans-serif, system-ui, -apple-system, BlinkMacSystemFont, 'Segoe UI', sans-serif">Ancillary</text><text x="290" y="574" fill="#766b5d" font-size="11" font-weight="600" font-family="Inter, ui-sans-serif, system-ui, -apple-system, BlinkMacSystemFont, 'Segoe UI', sans-serif">In library</text><rect x="28" y="646" width="384" height="118" rx="24" fill="#1f2933" stroke-width="1"/><text x="56" y="690" fill="#f8fafc" font-size="20" font-weight="800" font-family="Inter, ui-sans-serif, system-ui, -apple-system, BlinkMacSystemFont, 'Segoe UI', sans-serif">Offline ready</text><text x="56" y="720" fill="#cbd5e1" font-size="13" font-weight="600" font-family="Inter, ui-sans-serif, system-ui, -apple-system, BlinkMacSystemFont, 'Segoe UI', sans-serif">3 books downloaded for reading anywhere.</text><rect x="56" y="740" width="146" height="32" rx="16" fill="#f4d58d" stroke-width="1"/><text x="129" y="762" fill="#24313d" font-size="12" font-weight="800" font-family="Inter, ui-sans-serif, system-ui, -apple-system, BlinkMacSystemFont, 'Segoe UI', sans-serif" text-anchor="middle">Manage cache</text><rect x="0" y="902" width="440" height="86" rx="0" fill="#fffaf2" stroke="#e0d4c4" stroke-width="1"/><circle cx="72" cy="930" r="12" fill="#8a8177" stroke-width="1" opacity="0.12"/><text x="72" y="966" fill="#8a8177" font-size="11" font-weight="600" font-family="Inter, ui-sans-serif, system-ui, -apple-system, BlinkMacSystemFont, 'Segoe UI', sans-serif" text-anchor="middle">Home</text><circle cx="160" cy="930" r="12" fill="#2f7a6b" stroke-width="1" opacity="0.22"/><text x="160" y="966" fill="#2f7a6b" font-size="11" font-weight="800" font-family="Inter, ui-sans-serif, system-ui, -apple-system, BlinkMacSystemFont, 'Segoe UI', sans-serif" text-anchor="middle">Library</text><circle cx="252" cy="930" r="12" fill="#8a8177" stroke-width="1" opacity="0.12"/><text x="252" y="966" fill="#8a8177" font-size="11" font-weight="600" font-family="Inter, ui-sans-serif, system-ui, -apple-system, BlinkMacSystemFont, 'Segoe UI', sans-serif" text-anchor="middle">Stats</text><circle cx="352" cy="930" r="12" fill="#8a8177" stroke-width="1" opacity="0.12"/><text x="352" y="966" fill="#8a8177" font-size="11" font-weight="600" font-family="Inter, ui-sans-serif, system-ui, -apple-system, BlinkMacSystemFont, 'Segoe UI', sans-serif" text-anchor="middle">Settings</text></g>
    
</svg>
